# xmcd
#
# Track frame offsets:
#	150
#	15032
#	32556
#	48273
#	74983
#	96459
#	113754
#	129462
#	148163
#	169103
#	182603
#	195839
#	209231
#	227942
#	246586
#	274147
#	297858
#
# Disc length: 4242 seconds
#
# Revision: 0
# Processed by: cddbd v1.5.2PL0 Copyright (c) Steve Scherf et al.
# Submitted via: EasyCDDAExtractor 16.0.8.2
#
DISCID=04109011
DTITLE=Συλλλογικός δίσκος - The best disco in town 1
DYEAR=1996
DGENRE=Ξένη ντίσκο
TTITLE0=Ritchie Family - The best disco in town
TTITLE1=Donna Summer - Bad girls
TTITLE2=Anita Ward - Ring my bell
TTITLE3=Silver Convention - Fly robin fly
TTITLE4=Kool and the Gang - Get down on it
TTITLE5=Pointer Sisters - I'm so exited
TTITLE6=Boney M - Belfast
TTITLE7=Opus - Live is life
TTITLE8=Taco - Puttin'on the ritz
TTITLE9=Gloria Gaynor - Never can say goodbye
TTITLE10=Yvonne Elliman - If I can't have you
TTITLE11=Evelyn Champagne King - Shame
TTITLE12=Amii Stewart - Knock on wood
TTITLE13=Gazebo - I like chopin
TTITLE14=Miguel Brown - So many men so little time
TTITLE15=Delegation - You and I
TTITLE16=Andy Gibb - Shadow dancing
EXTD=
EXTT0=
EXTT1=
EXTT2=
EXTT3=
EXTT4=
EXTT5=
EXTT6=
EXTT7=
EXTT8=
EXTT9=
EXTT10=
EXTT11=
EXTT12=
EXTT13=
EXTT14=
EXTT15=
EXTT16=
PLAYORDER=
